<svg width="42" height="41" viewBox="0 0 42 41" fill="none" xmlns="http://www.w3.org/2000/svg">
<path fill-rule="evenodd" clip-rule="evenodd" d="M16.3333 15.9445V26.1945C16.3333 30.5948 12.6742 34.1668 8.16667 34.1668C3.65909 34.1668 0 30.5948 0 26.1945V7.97224C0 3.57197 3.65909 0 8.16667 0H26.8333C31.3409 0 35 3.57197 35 7.97224C35 12.3725 31.3409 15.9445 26.8333 15.9445H16.3333Z" fill="#034AFD"/>
<path opacity="0.85" fill-rule="evenodd" clip-rule="evenodd" d="M23.3333 22.7778V33.0278C23.3333 37.4281 19.6742 41 15.1667 41C10.6591 41 7 37.4281 7 33.0278V14.8055C7 10.4053 10.6591 6.83325 15.1667 6.83325H33.8333C38.3409 6.83325 42 10.4053 42 14.8055C42 19.2058 38.3409 22.7778 33.8333 22.7778H23.3333Z" fill="#00E095"/>
</svg>
